<svg xmlns="http://www.w3.org/2000/svg" xmlns:xlink="http://www.w3.org/1999/xlink" width="500" zoomAndPan="magnify" viewBox="0 0 375 374.999991" height="500" preserveAspectRatio="xMidYMid meet" version="1.0"><defs><g/><clipPath id="5604e7a2c6"><rect x="0" width="93" y="0" height="14"/></clipPath></defs><rect x="-37.5" width="450" fill="#ffffff" y="-37.499999" height="449.999989" fill-opacity="1"/><rect x="-37.5" width="450" fill="#ffffff" y="-37.499999" height="449.999989" fill-opacity="1"/><path fill="#000000" d="M 252.328125 187.003906 C 251.5625 187.003906 250.945312 187.621094 250.945312 188.386719 C 250.945312 198.296875 242.878906 206.363281 232.96875 206.363281 C 223.054688 206.363281 214.992188 198.296875 214.992188 188.386719 C 214.992188 178.472656 223.054688 170.410156 232.96875 170.410156 C 233.730469 170.410156 234.351562 169.789062 234.351562 169.027344 C 234.351562 168.261719 233.730469 167.644531 232.96875 167.644531 C 221.53125 167.644531 212.226562 176.949219 212.226562 188.386719 C 212.226562 199.824219 221.53125 209.128906 232.96875 209.128906 C 244.40625 209.128906 253.710938 199.824219 253.710938 188.386719 C 253.710938 187.621094 253.089844 187.003906 252.328125 187.003906 Z M 252.328125 187.003906 " fill-opacity="1" fill-rule="nonzero"/><path fill="#000000" d="M 232.96875 173.175781 C 224.582031 173.175781 217.757812 180 217.757812 188.386719 C 217.757812 196.773438 224.582031 203.597656 232.96875 203.597656 C 241.355469 203.597656 248.179688 196.773438 248.179688 188.386719 C 248.179688 187.621094 247.558594 187.003906 246.796875 187.003906 C 246.03125 187.003906 245.414062 187.621094 245.414062 188.386719 C 245.414062 195.246094 239.828125 200.832031 232.96875 200.832031 C 226.105469 200.832031 220.523438 195.246094 220.523438 188.386719 C 220.523438 181.523438 226.105469 175.941406 232.96875 175.941406 C 233.730469 175.941406 234.351562 175.320312 234.351562 174.558594 C 234.351562 173.792969 233.730469 173.175781 232.96875 173.175781 Z M 232.96875 173.175781 " fill-opacity="1" fill-rule="nonzero"/><path fill="#000000" d="M 232.96875 181.472656 C 233.730469 181.472656 234.351562 180.851562 234.351562 180.089844 C 234.351562 179.324219 233.730469 178.707031 232.96875 178.707031 C 227.628906 178.707031 223.289062 183.046875 223.289062 188.386719 C 223.289062 193.722656 227.628906 198.066406 232.96875 198.066406 C 238.304688 198.066406 242.648438 193.722656 242.648438 188.386719 C 242.648438 187.621094 242.027344 187.003906 241.265625 187.003906 C 240.5 187.003906 239.882812 187.621094 239.882812 188.386719 C 239.882812 192.199219 236.78125 195.300781 232.96875 195.300781 C 229.15625 195.300781 226.054688 192.199219 226.054688 188.386719 C 226.054688 184.574219 229.15625 181.472656 232.96875 181.472656 Z M 232.96875 181.472656 " fill-opacity="1" fill-rule="nonzero"/><path fill="#000000" d="M 234.351562 184.238281 C 234.351562 183.472656 233.730469 182.855469 232.96875 182.855469 C 232.203125 182.855469 231.585938 183.472656 231.585938 184.238281 L 231.585938 188.386719 C 231.585938 188.566406 231.621094 188.746094 231.691406 188.914062 C 231.832031 189.25 232.101562 189.519531 232.4375 189.660156 C 232.609375 189.730469 232.789062 189.769531 232.96875 189.769531 L 237.117188 189.769531 C 237.878906 189.769531 238.5 189.148438 238.5 188.386719 C 238.5 187.621094 237.878906 187.003906 237.117188 187.003906 L 236.304688 187.003906 L 241.835938 181.472656 L 246.796875 181.472656 C 247.164062 181.472656 247.515625 181.324219 247.773438 181.066406 L 253.304688 175.535156 C 253.699219 175.140625 253.820312 174.542969 253.605469 174.027344 C 253.390625 173.511719 252.886719 173.175781 252.328125 173.175781 L 248.179688 173.175781 L 248.179688 169.027344 C 248.179688 168.46875 247.839844 167.960938 247.324219 167.75 C 246.808594 167.535156 246.214844 167.652344 245.816406 168.046875 L 240.285156 173.578125 C 240.027344 173.839844 239.882812 174.191406 239.882812 174.558594 L 239.882812 179.515625 L 234.351562 185.046875 Z M 242.648438 175.128906 L 245.414062 172.363281 L 245.414062 174.558594 C 245.414062 175.320312 246.03125 175.941406 246.796875 175.941406 L 248.988281 175.941406 L 246.222656 178.707031 L 242.648438 178.707031 Z M 242.648438 175.128906 " fill-opacity="1" fill-rule="nonzero"/><g fill="#000000" fill-opacity="1"><g transform="translate(32.503215, 204.749987)"><g><path d="M 25.671875 -38.390625 C 28.046875 -38.390625 30.160156 -37.835938 32.015625 -36.734375 C 33.878906 -35.640625 35.332031 -34.132812 36.375 -32.21875 C 37.414062 -30.300781 37.9375 -28.15625 37.9375 -25.78125 L 37.9375 -25.046875 C 37.9375 -22.671875 37.414062 -20.515625 36.375 -18.578125 C 35.332031 -16.640625 33.878906 -15.125 32.015625 -14.03125 C 30.160156 -12.9375 28.046875 -12.390625 25.671875 -12.390625 L 16.453125 -12.390625 L 16.453125 0 L 4.125 0 L 4.125 -38.390625 Z M 16.453125 -21.375 L 21.53125 -21.375 C 22.832031 -21.375 23.804688 -21.707031 24.453125 -22.375 C 25.109375 -23.039062 25.4375 -23.953125 25.4375 -25.109375 L 25.4375 -25.5625 C 25.4375 -26.75 25.109375 -27.664062 24.453125 -28.3125 C 23.804688 -28.96875 22.832031 -29.296875 21.53125 -29.296875 L 16.453125 -29.296875 Z M 16.453125 -21.375 "/></g></g></g><g fill="#000000" fill-opacity="1"><g transform="translate(76.301548, 204.749987)"><g><path d="M 4.125 -38.390625 L 16.453125 -38.390625 L 16.453125 -9.8125 L 36.15625 -9.8125 L 36.15625 0 L 4.125 0 Z M 4.125 -38.390625 "/></g></g></g><g fill="#000000" fill-opacity="1"><g transform="translate(117.031263, 204.749987)"><g><path d="M 29.84375 0 L 28.234375 -5.40625 L 14.78125 -5.40625 L 13.171875 0 L 0.5625 0 L 14.5625 -38.390625 L 28.90625 -38.390625 L 42.90625 0 Z M 17.359375 -14 L 25.671875 -14 L 21.65625 -27.671875 L 21.421875 -27.671875 Z M 17.359375 -14 "/></g></g></g><g fill="#000000" fill-opacity="1"><g transform="translate(163.954005, 204.749987)"><g><path d="M 31.578125 0 L 15.453125 -18.640625 L 15.453125 0 L 4.125 0 L 4.125 -38.390625 L 14.890625 -38.390625 L 31.015625 -19.46875 L 31.015625 -38.390625 L 42.34375 -38.390625 L 42.34375 0 Z M 31.578125 0 "/></g></g></g><g fill="#000000" fill-opacity="1"><g transform="translate(213.956328, 204.749987)"><g/></g></g><g fill="#000000" fill-opacity="1"><g transform="translate(236.051183, 204.749987)"><g/></g></g><g fill="#000000" fill-opacity="1"><g transform="translate(258.147735, 204.749987)"><g><path d="M 40.5625 -26.609375 C 40.5625 -24.265625 39.925781 -22.144531 38.65625 -20.25 C 37.394531 -18.351562 35.554688 -16.957031 33.140625 -16.0625 L 41.6875 0 L 27.84375 0 L 21.03125 -14 L 16.453125 -14 L 16.453125 0 L 4.125 0 L 4.125 -38.390625 L 27.625 -38.390625 C 30.375 -38.390625 32.722656 -37.859375 34.671875 -36.796875 C 36.628906 -35.734375 38.097656 -34.300781 39.078125 -32.5 C 40.066406 -30.695312 40.5625 -28.734375 40.5625 -26.609375 Z M 28.015625 -26.109375 C 28.015625 -27.117188 27.675781 -27.957031 27 -28.625 C 26.332031 -29.289062 25.515625 -29.625 24.546875 -29.625 L 16.453125 -29.625 L 16.453125 -22.546875 L 24.546875 -22.546875 C 25.515625 -22.546875 26.332031 -22.890625 27 -23.578125 C 27.675781 -24.265625 28.015625 -25.109375 28.015625 -26.109375 Z M 28.015625 -26.109375 "/></g></g></g><g fill="#000000" fill-opacity="1"><g transform="translate(305.070477, 204.749987)"><g><path d="M 29.84375 0 L 28.234375 -5.40625 L 14.78125 -5.40625 L 13.171875 0 L 0.5625 0 L 14.5625 -38.390625 L 28.90625 -38.390625 L 42.90625 0 Z M 17.359375 -14 L 25.671875 -14 L 21.65625 -27.671875 L 21.421875 -27.671875 Z M 17.359375 -14 "/></g></g></g><g transform="matrix(1, 0, 0, 1, 260, 206)"><g clip-path="url(#5604e7a2c6)"><g fill="#000000" fill-opacity="1"><g transform="translate(1.134304, 10.725408)"><g><path d="M 0.890625 -8.265625 L 7.5625 -8.265625 L 7.5625 -6.28125 L 3.546875 -6.28125 L 3.546875 -4.859375 L 7 -4.859375 L 7 -2.96875 L 3.546875 -2.96875 L 3.546875 0 L 0.890625 0 Z M 0.890625 -8.265625 "/></g></g></g><g fill="#000000" fill-opacity="1"><g transform="translate(9.498455, 10.725408)"><g><path d="M 4 -6.484375 C 5.113281 -6.484375 5.988281 -6.203125 6.625 -5.640625 C 7.257812 -5.078125 7.578125 -4.253906 7.578125 -3.171875 C 7.578125 -2.085938 7.257812 -1.265625 6.625 -0.703125 C 5.988281 -0.140625 5.113281 0.140625 4 0.140625 C 2.882812 0.140625 2.007812 -0.132812 1.375 -0.6875 C 0.75 -1.25 0.4375 -2.078125 0.4375 -3.171875 C 0.4375 -4.265625 0.75 -5.085938 1.375 -5.640625 C 2.007812 -6.203125 2.882812 -6.484375 4 -6.484375 Z M 4 -4.859375 C 3.21875 -4.859375 2.828125 -4.410156 2.828125 -3.515625 L 2.828125 -2.828125 C 2.828125 -1.929688 3.21875 -1.484375 4 -1.484375 C 4.789062 -1.484375 5.1875 -1.929688 5.1875 -2.828125 L 5.1875 -3.515625 C 5.1875 -4.410156 4.789062 -4.859375 4 -4.859375 Z M 4 -4.859375 "/></g></g></g><g fill="#000000" fill-opacity="1"><g transform="translate(18.271245, 10.725408)"><g><path d="M 4.578125 -6.5 C 4.765625 -6.5 4.925781 -6.476562 5.0625 -6.4375 C 5.207031 -6.394531 5.28125 -6.367188 5.28125 -6.359375 L 5.28125 -4.34375 L 4.515625 -4.34375 C 4.015625 -4.34375 3.65625 -4.210938 3.4375 -3.953125 C 3.21875 -3.703125 3.109375 -3.328125 3.109375 -2.828125 L 3.109375 0 L 0.71875 0 L 0.71875 -6.34375 L 2.671875 -6.34375 L 2.828125 -5.390625 C 2.972656 -5.753906 3.203125 -6.03125 3.515625 -6.21875 C 3.828125 -6.40625 4.179688 -6.5 4.578125 -6.5 Z M 4.578125 -6.5 "/></g></g></g><g fill="#000000" fill-opacity="1"><g transform="translate(24.364184, 10.725408)"><g/></g></g><g fill="#000000" fill-opacity="1"><g transform="translate(29.123203, 10.725408)"><g><path d="M 3.734375 -6.484375 C 4.585938 -6.484375 5.304688 -6.316406 5.890625 -5.984375 C 6.484375 -5.648438 6.78125 -5.140625 6.78125 -4.453125 L 4.546875 -4.453125 C 4.546875 -4.679688 4.441406 -4.84375 4.234375 -4.9375 C 4.097656 -5.019531 3.921875 -5.0625 3.703125 -5.0625 C 3.117188 -5.0625 2.828125 -4.925781 2.828125 -4.65625 C 2.828125 -4.5 2.925781 -4.390625 3.125 -4.328125 C 3.332031 -4.265625 3.664062 -4.195312 4.125 -4.125 C 4.6875 -4.039062 5.15625 -3.941406 5.53125 -3.828125 C 5.90625 -3.722656 6.234375 -3.53125 6.515625 -3.25 C 6.796875 -2.976562 6.9375 -2.597656 6.9375 -2.109375 C 6.9375 -1.296875 6.632812 -0.71875 6.03125 -0.375 C 5.425781 -0.03125 4.632812 0.140625 3.65625 0.140625 C 3.09375 0.140625 2.5625 0.0625 2.0625 -0.09375 C 1.570312 -0.25 1.171875 -0.488281 0.859375 -0.8125 C 0.546875 -1.144531 0.390625 -1.5625 0.390625 -2.0625 L 2.609375 -2.0625 L 2.609375 -2.015625 C 2.617188 -1.742188 2.734375 -1.550781 2.953125 -1.4375 C 3.171875 -1.332031 3.40625 -1.28125 3.65625 -1.28125 C 4.320312 -1.28125 4.65625 -1.4375 4.65625 -1.75 C 4.65625 -1.914062 4.550781 -2.03125 4.34375 -2.09375 C 4.132812 -2.164062 3.789062 -2.242188 3.3125 -2.328125 C 2.75 -2.421875 2.285156 -2.523438 1.921875 -2.640625 C 1.554688 -2.753906 1.234375 -2.941406 0.953125 -3.203125 C 0.679688 -3.472656 0.546875 -3.851562 0.546875 -4.34375 C 0.546875 -5.113281 0.835938 -5.660156 1.421875 -5.984375 C 2.015625 -6.316406 2.785156 -6.484375 3.734375 -6.484375 Z M 3.734375 -6.484375 "/></g></g></g><g fill="#000000" fill-opacity="1"><g transform="translate(37.223026, 10.725408)"><g><path d="M 4.953125 -6.34375 L 4.953125 -4.71875 L 3.609375 -4.71875 L 3.609375 -2.3125 C 3.609375 -2.019531 3.65625 -1.804688 3.75 -1.671875 C 3.84375 -1.546875 4.019531 -1.484375 4.28125 -1.484375 L 4.953125 -1.484375 L 4.953125 -0.078125 C 4.753906 -0.00390625 4.503906 0.046875 4.203125 0.078125 C 3.898438 0.117188 3.632812 0.140625 3.40625 0.140625 C 2.707031 0.140625 2.164062 0.015625 1.78125 -0.234375 C 1.40625 -0.492188 1.21875 -0.929688 1.21875 -1.546875 L 1.21875 -4.71875 L 0.328125 -4.71875 L 0.328125 -6.34375 L 1.3125 -6.34375 L 1.828125 -8.265625 L 3.609375 -8.265625 L 3.609375 -6.34375 Z M 4.953125 -6.34375 "/></g></g></g><g fill="#000000" fill-opacity="1"><g transform="translate(43.315965, 10.725408)"><g><path d="M 5.328125 0 L 5.171875 -0.96875 C 4.921875 -0.613281 4.59375 -0.335938 4.1875 -0.140625 C 3.78125 0.046875 3.351562 0.140625 2.90625 0.140625 C 2.164062 0.140625 1.613281 -0.0625 1.25 -0.46875 C 0.882812 -0.875 0.703125 -1.460938 0.703125 -2.234375 L 0.703125 -6.34375 L 3.09375 -6.34375 L 3.09375 -2.515625 C 3.09375 -2.242188 3.160156 -2.023438 3.296875 -1.859375 C 3.441406 -1.703125 3.640625 -1.625 3.890625 -1.625 C 4.191406 -1.625 4.429688 -1.71875 4.609375 -1.90625 C 4.796875 -2.101562 4.890625 -2.34375 4.890625 -2.625 L 4.890625 -6.34375 L 7.28125 -6.34375 L 7.28125 0 Z M 5.328125 0 "/></g></g></g><g fill="#000000" fill-opacity="1"><g transform="translate(52.088752, 10.725408)"><g><path d="M 5.328125 0 L 5.125 -0.90625 C 4.664062 -0.207031 3.992188 0.140625 3.109375 0.140625 C 2.253906 0.140625 1.59375 -0.132812 1.125 -0.6875 C 0.664062 -1.25 0.4375 -2.082031 0.4375 -3.1875 C 0.4375 -4.269531 0.664062 -5.085938 1.125 -5.640625 C 1.59375 -6.203125 2.253906 -6.484375 3.109375 -6.484375 C 3.835938 -6.484375 4.429688 -6.238281 4.890625 -5.75 L 4.890625 -8.71875 L 7.28125 -8.71875 L 7.28125 0 Z M 3.859375 -4.71875 C 3.171875 -4.71875 2.828125 -4.304688 2.828125 -3.484375 L 2.828125 -2.84375 C 2.828125 -2.03125 3.171875 -1.625 3.859375 -1.625 C 4.210938 -1.625 4.476562 -1.742188 4.65625 -1.984375 C 4.832031 -2.234375 4.921875 -2.5625 4.921875 -2.96875 L 4.921875 -3.359375 C 4.921875 -3.765625 4.832031 -4.09375 4.65625 -4.34375 C 4.476562 -4.59375 4.210938 -4.71875 3.859375 -4.71875 Z M 3.859375 -4.71875 "/></g></g></g><g fill="#000000" fill-opacity="1"><g transform="translate(60.861545, 10.725408)"><g><path d="M 4 -6.484375 C 5.164062 -6.484375 6.050781 -6.210938 6.65625 -5.671875 C 7.269531 -5.128906 7.578125 -4.296875 7.578125 -3.171875 L 7.578125 -2.765625 L 2.828125 -2.765625 C 2.828125 -2.304688 2.925781 -1.957031 3.125 -1.71875 C 3.332031 -1.488281 3.65625 -1.375 4.09375 -1.375 C 4.5 -1.375 4.796875 -1.457031 4.984375 -1.625 C 5.171875 -1.800781 5.265625 -2.03125 5.265625 -2.3125 L 7.578125 -2.3125 C 7.578125 -1.539062 7.285156 -0.9375 6.703125 -0.5 C 6.117188 -0.0703125 5.265625 0.140625 4.140625 0.140625 C 2.960938 0.140625 2.050781 -0.128906 1.40625 -0.671875 C 0.757812 -1.222656 0.4375 -2.054688 0.4375 -3.171875 C 0.4375 -4.265625 0.75 -5.085938 1.375 -5.640625 C 2.007812 -6.203125 2.882812 -6.484375 4 -6.484375 Z M 4.09375 -4.96875 C 3.34375 -4.96875 2.921875 -4.609375 2.828125 -3.890625 L 5.171875 -3.890625 C 5.171875 -4.222656 5.078125 -4.484375 4.890625 -4.671875 C 4.703125 -4.867188 4.4375 -4.96875 4.09375 -4.96875 Z M 4.09375 -4.96875 "/></g></g></g><g fill="#000000" fill-opacity="1"><g transform="translate(69.634337, 10.725408)"><g><path d="M 5.09375 -6.484375 C 5.832031 -6.484375 6.382812 -6.28125 6.75 -5.875 C 7.125 -5.46875 7.3125 -4.878906 7.3125 -4.109375 L 7.3125 0 L 4.921875 0 L 4.921875 -3.828125 C 4.921875 -4.097656 4.847656 -4.3125 4.703125 -4.46875 C 4.566406 -4.632812 4.367188 -4.71875 4.109375 -4.71875 C 3.816406 -4.71875 3.578125 -4.617188 3.390625 -4.421875 C 3.203125 -4.234375 3.109375 -4 3.109375 -3.71875 L 3.109375 0 L 0.71875 0 L 0.71875 -6.34375 L 2.671875 -6.34375 L 2.828125 -5.390625 C 3.078125 -5.722656 3.40625 -5.988281 3.8125 -6.1875 C 4.21875 -6.382812 4.644531 -6.484375 5.09375 -6.484375 Z M 5.09375 -6.484375 "/></g></g></g><g fill="#000000" fill-opacity="1"><g transform="translate(78.407125, 10.725408)"><g><path d="M 4.953125 -6.34375 L 4.953125 -4.71875 L 3.609375 -4.71875 L 3.609375 -2.3125 C 3.609375 -2.019531 3.65625 -1.804688 3.75 -1.671875 C 3.84375 -1.546875 4.019531 -1.484375 4.28125 -1.484375 L 4.953125 -1.484375 L 4.953125 -0.078125 C 4.753906 -0.00390625 4.503906 0.046875 4.203125 0.078125 C 3.898438 0.117188 3.632812 0.140625 3.40625 0.140625 C 2.707031 0.140625 2.164062 0.015625 1.78125 -0.234375 C 1.40625 -0.492188 1.21875 -0.929688 1.21875 -1.546875 L 1.21875 -4.71875 L 0.328125 -4.71875 L 0.328125 -6.34375 L 1.3125 -6.34375 L 1.828125 -8.265625 L 3.609375 -8.265625 L 3.609375 -6.34375 Z M 4.953125 -6.34375 "/></g></g></g><g fill="#000000" fill-opacity="1"><g transform="translate(84.500061, 10.725408)"><g><path d="M 3.734375 -6.484375 C 4.585938 -6.484375 5.304688 -6.316406 5.890625 -5.984375 C 6.484375 -5.648438 6.78125 -5.140625 6.78125 -4.453125 L 4.546875 -4.453125 C 4.546875 -4.679688 4.441406 -4.84375 4.234375 -4.9375 C 4.097656 -5.019531 3.921875 -5.0625 3.703125 -5.0625 C 3.117188 -5.0625 2.828125 -4.925781 2.828125 -4.65625 C 2.828125 -4.5 2.925781 -4.390625 3.125 -4.328125 C 3.332031 -4.265625 3.664062 -4.195312 4.125 -4.125 C 4.6875 -4.039062 5.15625 -3.941406 5.53125 -3.828125 C 5.90625 -3.722656 6.234375 -3.53125 6.515625 -3.25 C 6.796875 -2.976562 6.9375 -2.597656 6.9375 -2.109375 C 6.9375 -1.296875 6.632812 -0.71875 6.03125 -0.375 C 5.425781 -0.03125 4.632812 0.140625 3.65625 0.140625 C 3.09375 0.140625 2.5625 0.0625 2.0625 -0.09375 C 1.570312 -0.25 1.171875 -0.488281 0.859375 -0.8125 C 0.546875 -1.144531 0.390625 -1.5625 0.390625 -2.0625 L 2.609375 -2.0625 L 2.609375 -2.015625 C 2.617188 -1.742188 2.734375 -1.550781 2.953125 -1.4375 C 3.171875 -1.332031 3.40625 -1.28125 3.65625 -1.28125 C 4.320312 -1.28125 4.65625 -1.4375 4.65625 -1.75 C 4.65625 -1.914062 4.550781 -2.03125 4.34375 -2.09375 C 4.132812 -2.164062 3.789062 -2.242188 3.3125 -2.328125 C 2.75 -2.421875 2.285156 -2.523438 1.921875 -2.640625 C 1.554688 -2.753906 1.234375 -2.941406 0.953125 -3.203125 C 0.679688 -3.472656 0.546875 -3.851562 0.546875 -4.34375 C 0.546875 -5.113281 0.835938 -5.660156 1.421875 -5.984375 C 2.015625 -6.316406 2.785156 -6.484375 3.734375 -6.484375 Z M 3.734375 -6.484375 "/></g></g></g></g></g></svg>